<?xml version="1.0" standalone="no"?>
<!DOCTYPE svg PUBLIC "-//W3C//DTD SVG 20010904//EN"
 "http://www.w3.org/TR/2001/REC-SVG-20010904/DTD/svg10.dtd">
<svg version="1.0" xmlns="http://www.w3.org/2000/svg"
 width="92.000000pt" height="92.000000pt" viewBox="0 0 92.000000 92.000000"
 preserveAspectRatio="xMidYMid meet">
<metadata>
Created by potrace 1.11, written by Peter Selinger 2001-2013
</metadata>
<g transform="translate(0.000000,92.000000) scale(0.100000,-0.100000)"
fill="#000000" stroke="none">
<path d="M870 801 c-8 -6 -18 -7 -22 -5 -4 3 -8 1 -8 -5 0 -5 -9 -12 -20 -16
-28 -9 -143 -127 -192 -197 -34 -48 -45 -57 -62 -52 -12 4 -23 9 -26 13 -5 6
-65 29 -97 36 -10 3 -34 8 -53 13 -78 19 -175 -1 -210 -43 -20 -25 -17 -91 6
-123 18 -25 127 -87 157 -90 20 -1 71 -13 75 -17 7 -6 -49 -51 -105 -85 -60
-37 -136 -46 -189 -24 -60 25 -70 84 -16 101 30 10 32 10 85 0 20 -5 37 -12
37 -17 0 -5 7 -7 15 -3 52 19 -49 70 -134 68 -37 -2 -50 -8 -78 -38 -27 -30
-32 -42 -26 -64 20 -82 152 -118 288 -79 30 9 58 16 61 15 4 0 10 3 13 8 3 5
24 20 46 33 22 13 57 38 77 56 28 25 44 32 70 30 35 -3 68 8 68 24 0 5 -16 10
-35 12 l-36 3 31 43 c18 23 35 42 38 42 4 0 21 -13 39 -28 29 -25 31 -30 24
-67 -10 -56 9 -112 55 -163 56 -60 71 -55 75 28 3 49 -33 160 -52 160 -10 0
-3 38 15 81 8 19 15 39 16 44 1 6 10 26 20 45 10 19 19 40 20 45 4 15 19 57
30 80 33 71 51 125 45 134 -8 13 -25 14 -45 2z m-86 -155 c-14 -31 -27 -62
-28 -69 -1 -7 -4 -16 -7 -22 -6 -9 -18 -52 -25 -82 -1 -6 -6 -18 -11 -27 -7
-13 -12 -12 -37 8 l-29 23 19 34 c10 19 21 36 24 39 3 3 23 32 44 65 74 111
92 123 50 31z m-317 -117 c97 -36 98 -38 61 -90 -69 -95 -80 -99 -189 -66 -84
26 -138 81 -117 121 11 21 48 61 48 52 0 -3 10 -2 23 3 33 13 109 4 174 -20z
m308 -262 c4 -44 -6 -69 -20 -47 -9 14 -15 92 -8 103 10 17 23 -9 28 -56z"/>
</g>
</svg>
